#!OML:ASF F:\VICON\USERDATA\INSTALL\rory3\rory3.ASF
:FULLY-SPECIFIED
:DEGREES
695
root -1.87648 17.7554 -5.76637 2.24859 15.8373 2.20602
lowerback 2.54443 -1.48941 -2.52097
upperback 1.36483 -2.03328 1.84092
thorax 0.130031 -1.03789 3.35093
lowerneck -21.8332 -4.17158 -9.79997
upperneck 27.4266 -3.26049 2.89674
head 13.0792 -2.06292 2.20568
rclavicle 5.18828e-014 -7.15625e-015
rhumerus 17.0924 -1.56145 -64.434
rradius 107.285
rwrist -57.0969
rhand 14.1155 14.6121
rfingers 7.12502
rthumb 39.0185 -10.9026
lclavicle 5.18828e-014 -7.15625e-015
lhumerus 17.991 -3.71033 78.0941
lradius 102.86
lwrist 66.7885
lhand 32.0479 26.6078
lfingers 7.12502
lthumb 55.5381 44.3499
rfemur -14.5266 6.08096 7.63995
rtibia 37.1384
rfoot -18.0225 -11.1202
rtoes -6.69012
lfemur -2.284 2.29439 -19.3693
ltibia 20.5986
lfoot -14.3166 10.2399
ltoes -18.1784
696
root -1.81539 17.7581 -5.78352 2.10757 15.7457 2.14401
lowerback 2.28704 -1.40703 -2.66327
upperback 1.61343 -1.92133 1.86538
thorax 0.526634 -0.993231 3.44256
lowerneck -21.8243 -4.21259 -9.71634
upperneck 27.2395 -3.29754 2.73217
head 12.9989 -2.08897 2.11844
rclavicle -4.18442e-014 3.18055e-015
rhumerus 15.7208 -1.57382 -63.8809
rradius 107.891
rwrist -56.6027
rhand 15.2504 14.7639
rfingers 7.12502
rthumb 40.0873 -10.4357
lclavicle -4.18442e-014 3.18055e-015
lhumerus 16.7496 -3.82343 77.8922
lradius 103.515
lwrist 66.3078
lhand 33.0096 26.7308
lfingers 7.12502
lthumb 56.3905 43.8136
rfemur -14.8532 6.04363 7.55824
rtibia 37.8086
rfoot -17.6835 -11.4905
rtoes -6.47963
lfemur -2.09947 2.49887 -19.5219
ltibia 20.5323
lfoot -14.318 10.1527
ltoes -18.2067
697
root -1.75521 17.7627 -5.80049 1.90768 15.6356 2.06277
lowerback 2.83438 -1.37236 -2.55262
upperback 1.29536 -1.88396 1.69753
thorax -0.118948 -0.957622 3.22758
lowerneck -21.3226 -4.14108 -9.52
upperneck 27.3472 -3.32561 2.73272
head 12.9367 -2.08608 2.08729
rclavicle 4.67144e-014 -7.95139e-016
rhumerus 13.4404 -1.21766 -63.7844
rradius 108.387
rwrist -56.2547
rhand 16.6569 14.7036
rfingers 7.12502
rthumb 41.4089 -10.0815
lclavicle 4.67144e-014 -7.95139e-016
lhumerus 14.6399 -3.99734 77.4853
lradius 104.067
lwrist 65.7662
lhand 33.8093 27.1041
lfingers 7.12502
lthumb 57.0952 43.6105
rfemur -15.1538 6.13633 7.51795
rtibia 38.5002
rfoot -17.3033 -12.0038
rtoes -6.38494
lfemur -1.88155 2.6057 -19.6609
ltibia 20.5003
lfoot -14.346 10.1799
ltoes -18.3394
698
root -1.69516 17.7662 -5.81987 1.83556 15.5933 2.16547
lowerback 2.18054 -1.32336 -2.78303
upperback 1.78438 -1.80861 1.61304
thorax 0.7483 -0.9426 3.24259
lowerneck -21.268 -4.25399 -9.60938
upperneck 26.8738 -3.51585 2.91286
head 12.7519 -2.14551 2.13456
rclavicle 9.14409e-015 1.43125e-014
rhumerus 12.3789 -1.39658 -63.5677
rradius 108.473
rwrist -55.4991
rhand 17.817 15.1756
rfingers 7.12502
rthumb 42.4963 -9.24596
lclavicle 9.14409e-015 1.43125e-014
lhumerus 14.0325 -3.92008 77.2957
lradius 104.144
lwrist 65.1442
lhand 35.8126 27.4274
lfingers 7.12502
lthumb 58.8428 42.3677
rfemur -15.5293 6.03826 7.25919
rtibia 39.2135
rfoot -16.888 -12.3991
rtoes -6.21269
lfemur -1.7537 2.66525 -20.0025
ltibia 20.4723
lfoot -14.3863 10.1732
ltoes -17.9124
699
root -1.63837 17.7659 -5.83988 1.75627 15.5689 2.20476
lowerback 1.9287 -1.29243 -2.95111
upperback 2.06563 -1.76224 1.57274
thorax 1.17916 -0.932588 3.28447
lowerneck -21.5221 -4.32737 -9.64891
upperneck 26.7154 -3.57583 2.91049
head 12.7449 -2.17144 2.12525
rclavicle 2.5842e-014 -1.51076e-014
rhumerus 11.1887 -1.46205 -63.2828
rradius 108.36
rwrist -54.4647
rhand 18.4763 16.1499
rfingers 7.12502
rthumb 43.1131 -8.05592
lclavicle 2.5842e-014 -1.51076e-014
lhumerus 13.2644 -3.79854 77.1195
lradius 104.009
lwrist 64.4403
lhand 37.2711 27.7458
lfingers 7.12502
lthumb 60.0971 41.4238
rfemur -15.9143 5.91424 7.08517
rtibia 39.9518
rfoot -16.4692 -12.7601
rtoes -5.04059
lfemur -1.61434 2.81274 -20.249
ltibia 20.3846
lfoot -14.443 10.0461
ltoes -16.997
